<svg viewBox="0 0 24.9863 21.6084" xmlns="http://www.w3.org/2000/svg" xmlns:xlink="http://www.w3.org/1999/xlink" width="24.986328" height="21.608398" fill="none" customFrame="#000000">
	<defs>
		<clipPath id="clipPath_3">
			<rect width="14.575342" height="12.604972" x="5.205566" y="4.502441" fill="rgb(255,255,255)" />
		</clipPath>
		<clipPath id="clipPath_4">
			<rect width="14.575342" height="12.604972" x="5.205566" y="4.502441" fill="rgb(255,255,255)" />
		</clipPath>
		<clipPath id="clipPath_5">
			<rect width="14.575342" height="12.604972" x="5.205566" y="4.502441" fill="rgb(255,255,255)" />
		</clipPath>
	</defs>
	<g id="Facebook">
		<ellipse id="Ellipse 9" rx="12.493151" ry="10.804261" cx="12.4931507" cy="10.8042612" fill="rgb(255,180,0)" />
		<g id="Icons-facebook" customFrame="url(#clipPath_3)">
			<rect id="Icons-facebook" width="14.575342" height="12.604972" x="5.205566" y="4.502441" fill="rgb(255,255,255)" fill-opacity="0" />
			<g id="Icons-facebook" customFrame="url(#clipPath_4)">
				<rect id="Icons-facebook" width="14.575342" height="12.604972" x="5.205566" y="4.502441" fill="rgb(255,255,255)" fill-opacity="0" />
				<g id="Icons-facebook" clip-path="url(#clipPath_5)" customFrame="url(#clipPath_5)">
					<rect id="Icons-facebook" width="14.575342" height="12.604972" x="5.205566" y="4.502441" fill="rgb(255,255,255)" fill-opacity="0" />
					<path id="Vector" d="M5.20557 4.50244L19.7809 4.50244L19.7809 17.1074L5.20557 17.1074L5.20557 4.50244Z" fill-rule="nonzero" />
					<path id="Vector" d="M13.7077 11.5926L15.226 11.5926L15.8333 9.49179L13.7077 9.49179L13.7077 8.44137C13.7077 7.90041 13.7077 7.39096 14.9223 7.39096L15.8333 7.39096L15.8333 5.62626C15.6353 5.60368 14.8877 5.55273 14.0982 5.55273C12.4493 5.55273 11.2785 6.423 11.2785 8.02121L11.2785 9.49179L9.45654 9.49179L9.45654 11.5926L11.2785 11.5926L11.2785 16.0569L13.7077 16.0569L13.7077 11.5926Z" fill="rgb(43,43,43)" fill-rule="nonzero" />
				</g>
			</g>
		</g>
	</g>
</svg>
