<svg viewBox="0 0 24.9863 21.6084" xmlns="http://www.w3.org/2000/svg" xmlns:xlink="http://www.w3.org/1999/xlink" width="24.986328" height="21.608398" fill="none" customFrame="#000000">
	<defs>
		<clipPath id="clipPath_0">
			<rect width="14.575342" height="12.604972" x="5.205566" y="4.502441" fill="rgb(255,255,255)" />
		</clipPath>
		<clipPath id="clipPath_1">
			<rect width="14.575342" height="12.604972" x="5.205566" y="4.502441" fill="rgb(255,255,255)" />
		</clipPath>
		<clipPath id="clipPath_2">
			<rect width="14.575342" height="12.604972" x="5.205566" y="4.502441" fill="rgb(255,255,255)" />
		</clipPath>
	</defs>
	<g id="Instagram">
		<ellipse id="Ellipse 9" rx="12.493151" ry="10.804261" cx="12.4931507" cy="10.8047495" fill="rgb(255,180,0)" />
		<g id="Icons-instagram" customFrame="url(#clipPath_0)">
			<rect id="Icons-instagram" width="14.575342" height="12.604972" x="5.205566" y="4.502441" fill="rgb(255,255,255)" fill-opacity="0" />
			<g id="Icons-instagram" customFrame="url(#clipPath_1)">
				<rect id="Icons-instagram" width="14.575342" height="12.604972" x="5.205566" y="4.502441" fill="rgb(255,255,255)" fill-opacity="0" />
				<g id="Icons-instagram" clip-path="url(#clipPath_2)" customFrame="url(#clipPath_2)">
					<rect id="Icons-instagram" width="14.575342" height="12.604972" x="5.205566" y="4.502441" fill="rgb(255,255,255)" fill-opacity="0" />
					<path id="Vector" d="M5.20557 4.50244L19.7809 4.50244L19.7809 17.1074L5.20557 17.1074L5.20557 4.50244Z" fill-rule="nonzero" />
					<path id="Vector" d="M12.4935 5.55322C14.1435 5.55322 14.3494 5.55847 14.9968 5.58473C15.6436 5.611 16.0839 5.69871 16.4713 5.82896C16.8721 5.96236 17.2098 6.14303 17.5475 6.43452C17.8563 6.69707 18.0952 7.01466 18.2477 7.36519C18.3977 7.69974 18.4997 8.08104 18.5301 8.64039C18.5586 9.20026 18.5665 9.37831 18.5665 10.8053C18.5665 12.2323 18.5605 12.4103 18.5301 12.9702C18.4997 13.5295 18.3977 13.9103 18.2477 14.2454C18.0957 14.5961 17.8567 14.9138 17.5475 15.1761C17.2438 15.443 16.8766 15.6497 16.4713 15.7816C16.0845 15.9114 15.6436 15.9996 14.9968 16.0259C14.3494 16.0505 14.1435 16.0574 12.4935 16.0574C10.8434 16.0574 10.6375 16.0521 9.99015 16.0259C9.34337 15.9996 8.90308 15.9114 8.51562 15.7816C8.11013 15.6501 7.74284 15.4434 7.43947 15.1761C7.1306 14.9136 6.89164 14.596 6.73925 14.2454C6.58863 13.9108 6.48721 13.5295 6.45685 12.9702C6.42831 12.4103 6.42041 12.2323 6.42041 10.8053C6.42041 9.37831 6.42648 9.20026 6.45685 8.64039C6.48721 8.08052 6.58863 7.70027 6.73925 7.36519C6.89122 7.01444 7.13023 6.69677 7.43947 6.43452C7.74292 6.16731 8.1102 5.96064 8.51562 5.82896C8.90308 5.69871 9.34277 5.611 9.99015 5.58473C10.6375 5.56005 10.8434 5.55322 12.4935 5.55322ZM12.4935 8.17926C11.6881 8.17926 10.9158 8.45593 10.3463 8.94841C9.77686 9.44088 9.45694 10.1088 9.45694 10.8053C9.45694 11.5018 9.77686 12.1697 10.3463 12.6622C10.9158 13.1547 11.6881 13.4313 12.4935 13.4313C13.2988 13.4313 14.0712 13.1547 14.6406 12.6622C15.2101 12.1697 15.53 11.5018 15.53 10.8053C15.53 10.1088 15.2101 9.44088 14.6406 8.94841C14.0712 8.45593 13.2988 8.17926 12.4935 8.17926ZM16.441 8.04796C16.441 7.87384 16.361 7.70685 16.2186 7.58373C16.0762 7.46062 15.8832 7.39145 15.6818 7.39145C15.4805 7.39145 15.2874 7.46062 15.145 7.58373C15.0027 7.70685 14.9227 7.87384 14.9227 8.04796C14.9227 8.22207 15.0027 8.38906 15.145 8.51218C15.2874 8.6353 15.4805 8.70447 15.6818 8.70447C15.8832 8.70447 16.0762 8.6353 16.2186 8.51218C16.361 8.38906 16.441 8.22207 16.441 8.04796ZM12.4935 9.22967C12.9767 9.22967 13.4401 9.39568 13.7818 9.69116C14.1234 9.98665 14.3154 10.3874 14.3154 10.8053C14.3154 11.2232 14.1234 11.6239 13.7818 11.9194C13.4401 12.2149 12.9767 12.3809 12.4935 12.3809C12.0103 12.3809 11.5469 12.2149 11.2052 11.9194C10.8635 11.6239 10.6716 11.2232 10.6716 10.8053C10.6716 10.3874 10.8635 9.98665 11.2052 9.69116C11.5469 9.39568 12.0103 9.22967 12.4935 9.22967Z" fill="rgb(43,43,43)" fill-rule="nonzero" />
				</g>
			</g>
		</g>
	</g>
</svg>
