<svg viewBox="0 0 24.9863 21.6084" xmlns="http://www.w3.org/2000/svg" xmlns:xlink="http://www.w3.org/1999/xlink" width="24.986328" height="21.608398" fill="none" customFrame="#000000">
	<defs>
		<clipPath id="clipPath_6">
			<rect width="14.575342" height="12.604972" x="5.205566" y="4.502441" fill="rgb(255,255,255)" />
		</clipPath>
		<clipPath id="clipPath_7">
			<rect width="14.575342" height="12.604972" x="5.205566" y="4.502441" fill="rgb(255,255,255)" />
		</clipPath>
		<clipPath id="clipPath_8">
			<rect width="14.575342" height="12.604972" x="5.205566" y="4.502441" fill="rgb(255,255,255)" />
		</clipPath>
	</defs>
	<g id="Twitter">
		<ellipse id="Ellipse 9" rx="12.493151" ry="10.804261" cx="12.4931507" cy="10.8047495" fill="rgb(255,180,0)" />
		<g id="Icons-twitter" customFrame="url(#clipPath_6)">
			<rect id="Icons-twitter" width="14.575342" height="12.604972" x="5.205566" y="4.502441" fill="rgb(255,255,255)" fill-opacity="0" />
			<g id="Icons-twitter" customFrame="url(#clipPath_7)">
				<rect id="Icons-twitter" width="14.575342" height="12.604972" x="5.205566" y="4.502441" fill="rgb(255,255,255)" fill-opacity="0" />
				<g id="Icons-twitter" clip-path="url(#clipPath_8)" customFrame="url(#clipPath_8)">
					<rect id="Icons-twitter" width="14.575342" height="12.604972" x="5.205566" y="4.502441" fill="rgb(255,255,255)" fill-opacity="0" />
					<path id="Vector" d="M5.20557 4.50244L19.7809 4.50244L19.7809 17.1074L5.20557 17.1074L5.20557 4.50244Z" fill-rule="nonzero" />
					<path id="Vector" d="M18.6649 7.47326C18.2012 7.65062 17.7095 7.7671 17.2061 7.81885C17.7367 7.54439 18.1339 7.11245 18.3235 6.60352C17.8256 6.85982 17.2796 7.03944 16.7105 7.1366C16.3283 6.78292 15.8217 6.54835 15.2694 6.46937C14.7171 6.39039 14.1501 6.47142 13.6566 6.69987C13.163 6.92831 12.7706 7.29137 12.5402 7.7326C12.3099 8.17383 12.2546 8.66852 12.3829 9.13974C11.373 9.09597 10.385 8.86901 9.48317 8.4736C8.58129 8.0782 7.78565 7.52318 7.1479 6.84459C6.92216 7.17991 6.80353 7.56109 6.80416 7.9491C6.80416 8.71065 7.25236 9.38344 7.93375 9.77734C7.53051 9.76637 7.13614 9.67219 6.78352 9.50266L6.78352 9.52997C6.78364 10.0372 6.98658 10.5287 7.35794 10.9213C7.72929 11.3138 8.2462 11.5833 8.82103 11.6838C8.44669 11.7716 8.05419 11.7845 7.67322 11.7217C7.83529 12.1582 8.15117 12.54 8.57664 12.8136C9.00211 13.0872 9.51586 13.2389 10.046 13.2474C9.51911 13.6052 8.91588 13.8698 8.27074 14.0258C7.6256 14.1819 6.95121 14.2265 6.28613 14.157C7.44712 14.8028 8.79862 15.1456 10.179 15.1444C14.851 15.1444 17.4059 11.7973 17.4059 8.89447C17.4059 8.79993 17.4029 8.70435 17.398 8.61086C17.8953 8.30002 18.3245 7.91497 18.6655 7.47379L18.6649 7.47326Z" fill="rgb(43,43,43)" fill-rule="nonzero" />
				</g>
			</g>
		</g>
	</g>
</svg>
